<?xml version="1.0" standalone="no"?>
<!DOCTYPE svg PUBLIC "-//W3C//DTD SVG 20010904//EN"
 "http://www.w3.org/TR/2001/REC-SVG-20010904/DTD/svg10.dtd">
<svg version="1.0" xmlns="http://www.w3.org/2000/svg"
 width="260.000000pt" height="260.000000pt" viewBox="0 0 260.000000 260.000000"
 preserveAspectRatio="xMidYMid meet">
<metadata>
Created by potrace 1.11, written by Peter Selinger 2001-2013
</metadata>
<g transform="translate(0.000000,260.000000) scale(0.100000,-0.100000)"
fill="#000000" stroke="none">
<path d="M1085 2584 c-477 -82 -866 -417 -1020 -877 -45 -135 -63 -250 -62
-411 0 -276 75 -517 232 -742 176 -252 438 -434 742 -514 114 -30 160 -35 338
-35 166 1 245 12 385 57 347 111 663 399 795 725 15 37 31 77 36 88 85 207 88
579 8 825 -126 383 -430 694 -809 828 -47 16 -110 35 -140 41 -30 6 -66 14
-80 17 -55 13 -346 12 -425 -2z"/>
</g>
</svg>
